<?xml version="1.0" encoding="utf-8" ?><svg xmlns="http://www.w3.org/2000/svg" xmlns:xlink="http://www.w3.org/1999/xlink" width="1024" height="1024" viewBox="0 0 1024 1024"><path fill="#DE5302" d="M0 0L1024 0L1024 1024L0 1024L0 0Z"/><path fill="white" d="M104.243 258.127C101.601 258.078 99.1054 257.937 96.4835 257.606C66.0153 253.757 63.4323 215.243 66.761 191.58C71.9394 154.767 94.6242 121.335 124.473 99.4284C168.781 66.9102 229.46 47.7446 284.519 54.9113C312.495 58.8704 343.795 72.1869 363.662 92.4061C368.995 97.8343 372.495 102.421 376.994 108.471C379.137 110.893 379.49 111.278 380.877 114.234C381.525 116.531 383.176 120.547 383.465 122.438C385.073 132.941 379.704 140.584 375.246 149.137C380.559 147.407 386.367 145.28 392.035 145.566C394.934 145.713 398.725 148.035 401.501 147.414C403.789 148.32 408.9 150.159 410.656 151.454C415.228 156.73 444.992 163.998 445.683 172.871C444.085 175.053 440.092 175.6 437.605 175.462C420.899 174.536 404.143 172.082 387.468 170.832C389.676 183.02 391.751 196.342 394.898 208.222C403.256 205.027 411.821 202.087 420.53 205.55C426.024 207.695 430.403 211.99 432.651 217.441C434.937 223.042 434.79 230.058 432.293 235.556C428.558 243.778 420.892 247.438 413.055 250.598C415.6 256.463 418.376 264.974 420.589 271.159C435.12 274.134 445.412 282.154 444.776 298.471C444.57 305.231 441.542 311.596 436.426 316.02C432.347 319.617 424.455 321.918 419.245 323.946L397.006 332.658L312.764 364.93C280.386 377.701 247.894 390.183 215.294 402.374C202.058 407.393 188.95 412.938 175.621 417.676C171.803 419.034 168.161 419.824 164.063 419.511C157.2 418.992 150.847 415.689 146.48 410.369C137.284 399.196 139.644 382.788 150.872 374.011C148.411 368.399 146.519 362.281 144.574 356.45C134.519 359.996 126.176 366.343 114.89 361.125C102.898 355.58 97.2579 342.464 102.994 330.253C107.923 319.758 119.335 317.023 129.384 313.453C122.533 304.324 112.369 293.057 104.769 284.106C96.4422 297.657 87.9331 311.469 78.7864 324.519C77.7236 325.774 76.1944 328.184 74.3073 328.11C71.3484 328.009 69.1398 326.078 69.4237 322.885C70.4264 311.611 71.1055 300.296 71.6391 288.983C71.8635 284.224 72.1567 279.039 72.9987 274.393C77.3916 270.21 97.6963 261.274 104.243 258.127Z"/><path fill="#DE5302" d="M82.3373 242.468C72.7695 230.557 72.3409 206.871 74.4461 192.559C87.8097 101.704 202.201 51.1352 285.186 62.5677C316.353 66.8615 350.167 84.2804 369.224 109.818C373.635 115.702 377.347 121.627 376.154 129.179C374.062 136.031 370.699 145.107 367.164 151.467C353.855 157.736 334.48 164.652 320.426 170.074L233.786 203.378L149.609 235.616C136.643 240.533 123.411 245.756 110.345 250.387C100.645 253.824 89.1234 250.35 82.3373 242.468Z"/><path fill="#FF9D38" d="M376.154 129.179C374.062 136.031 370.699 145.107 367.164 151.467C353.855 157.736 334.48 164.652 320.426 170.074L233.786 203.378L149.609 235.616C136.643 240.533 123.411 245.756 110.345 250.387C100.645 253.824 89.1234 250.35 82.3373 242.468C89.4521 240.021 98.9782 235.828 106.452 233.004C130.252 224.099 153.97 214.975 177.601 205.632L296.983 159.854L345.287 141.045C354.049 137.591 367.379 131.941 376.154 129.179Z"/><path fill="white" d="M108.977 157.919C119.454 159.364 118.944 177.506 117.417 185.277C116.471 190.094 115.076 193.534 110.833 196.103C99.3007 193.881 101.339 172.309 103.987 163.943C104.968 160.847 106.094 159.324 108.977 157.919Z"/><path fill="white" d="M198.322 101.01C203.484 100.895 207.05 103.509 210.021 107.655C214.576 114.013 222.244 127.838 213.885 133.822C206.009 134.541 200.462 124.888 197.73 118.66C195.063 112.577 192.8 105.963 198.322 101.01Z"/><path fill="white" d="M310.974 77.0685C323.058 76.2052 346.507 95.7551 333.385 103.377C323.867 103.512 297.389 85.1478 310.974 77.0685Z"/><path fill="white" d="M179.51 146.006C190.669 146.02 196.302 165.565 194.521 174.65C193.973 177.446 192.63 178.478 190.355 179.969C186.89 179.81 184.367 178.327 182.308 175.524C177.02 168.323 170.746 152.477 179.51 146.006Z"/><path fill="white" d="M269.508 112.434C280.952 111.508 297.156 135.92 286.736 142.399C280.125 141.479 274.996 136.729 271.165 131.57C266.633 125.467 262.088 117.977 269.508 112.434Z"/><path fill="white" d="M240.192 71.4864C250.166 70.8143 275.771 87.7178 261.566 95.5535C251.802 95.5585 225.484 80.5471 240.192 71.4864Z"/><path fill="white" d="M144.02 110.918C157.767 109.822 152.523 136.828 143.448 143.274C130.362 145.435 134.715 117.302 144.02 110.918Z"/><path fill="#FF9D38" d="M418.708 279.095C432.017 278.513 439.967 289.03 437.416 301.728C435.953 309.009 430.732 312.026 424.439 314.566C403.955 322.835 383.354 330.77 362.68 338.549L276.158 371.711L201.576 400.277C193.423 403.382 175.258 411.131 167.636 412.853C163.684 413.056 160.077 412.279 156.666 410.234C152.42 407.686 149.399 403.515 148.3 398.687C147.023 393.259 148.081 388.6 150.979 383.915C152.993 380.659 157.584 378.969 161.317 377.549C173.341 372.973 185.495 368.842 197.536 364.211L322.31 316.283L383.339 292.368C391.146 289.266 411.934 280.485 418.708 279.095Z"/><path fill="#DE5302" d="M385.846 152.04C394.687 151.289 417.312 162.469 425.694 167.188C416.357 166.33 407.042 165.256 397.755 163.967C376.513 161.027 377.031 158.225 381.228 180.424C383.033 189.732 384.734 199.06 386.33 208.406L345.555 193.282C339.197 190.947 321.633 183.421 315.673 184.999C312.033 188.463 310.462 194.512 309.076 199.212C304.855 213.532 300.07 227.656 295.802 241.963C285.681 232.787 276.627 220.804 266.209 211.716C265.119 210.765 263.266 209.748 261.929 210.301C256.244 212.656 259.772 221.125 254.841 227.372C249.338 234.345 239.347 238.181 231.005 239.387C226.746 237.764 224.146 238.65 223.949 243.737C223.553 253.924 224.064 264.162 223.901 274.399C211.278 267.463 187.269 245.397 176.813 242.403C170.3 243.971 154.935 250.323 149.241 254.41C143.793 258.32 143.735 267.257 142.857 273.999C141.356 283.671 139.097 301.337 136.644 310.203C130.205 303.539 122.653 293.832 116.753 286.577C103.594 270.392 103.104 272.616 92.8126 289.047C87.7751 297.092 82.8097 305.181 77.9169 313.315C77.9366 302.857 79.3707 289.02 80.1286 278.363C90.7227 272.218 101.594 267.003 112.449 261.371C149.637 242.078 189.547 228.339 228.739 213.439C281.348 193.591 333.72 173.123 385.846 152.04Z"/><path fill="#DE5302" d="M387.563 220.584L388.299 220.667C395.812 225.856 398.641 240.661 396.815 249.209C384.416 254.851 369.925 260.211 357.156 265.171L310.898 283.313L144.486 347.768C141.649 338.749 137.354 328.82 134.062 319.763C140.003 318.033 147.368 314.91 153.288 312.602L189.682 298.256L326.933 243.834L362.575 229.608C369.894 226.688 380.148 222.269 387.563 220.584Z"/><path fill="#DE5302" d="M406.339 255.514C408.937 259.087 411.714 268.409 413.192 272.906C404.664 275.636 391.889 281.155 383.114 284.577L325.237 307.122C269.801 329.016 214.089 350.205 158.114 370.684C157.104 369.948 152.43 356.742 151.536 354.474C192.514 339.795 233.831 322.951 274.423 307.052C318.488 290.112 362.461 272.932 406.339 255.514Z"/><path fill="#DE5302" d="M319.332 191.908C338.808 197.984 358.722 206.791 378.941 213.438C370.79 217.509 354.295 223.639 345.159 227.492C332.828 232.823 315.798 239.427 303.037 244.232C305.158 236.809 308.194 228.492 310.492 220.857C313.286 211.571 316.132 200.919 319.332 191.908Z"/><path fill="#DE5302" d="M193.026 263.456C196.381 263.094 212.704 276.453 216.145 279.113C198.716 285.275 180.767 292.791 163.364 299.472L145.776 306.204C146.432 299.043 148.453 288.243 149.712 280.919C160.754 275.253 180.665 268.616 193.026 263.456Z"/><path fill="#DE5302" d="M265.469 221.984C273.857 229.792 283.217 240.23 291.357 248.72C277.567 254.538 263.172 259.932 249.208 265.484L231.816 272.437C231.727 264.036 231.527 255.637 231.215 247.242C247.794 243.397 259.961 239.656 265.469 221.984Z"/><path fill="#DE5302" d="M126.922 322.594C128.017 323.89 136.765 347.564 138.058 350.926C130.44 354.537 127.998 356.729 119.737 355.322C110.326 352.949 105.315 340.848 110.175 332.325C113.937 325.729 120.186 324.697 126.922 322.594Z"/><path fill="#DE5302" d="M410.365 211.154C425.768 209.949 433.01 227.66 420.543 238.15C419.128 238.968 417.067 239.799 415.534 240.479C413.699 228.291 412.707 221.452 403.717 212.562C406.05 211.902 407.994 211.58 410.365 211.154Z"/><path fill="#DE5302" d="M175.481 250.442C179.802 250.354 184.054 255.037 187.24 257.907C178.746 261.433 168.42 265.033 159.595 268.487L150.791 271.818C151.315 265.182 151.905 259.782 158.933 256.992C164.468 254.795 169.975 252.73 175.481 250.442Z"/><path fill="#DE5302" d="M393.391 215.468C403.465 214.525 409.93 237.32 406.739 245.851C405.603 246.666 406.163 246.595 405.055 246.565C403.908 234.63 403.47 223.849 393.391 215.468Z"/><path fill="white" d="M399.512 930.474C399.641 939.007 399.061 961.918 394.788 968.357C391.85 972.78 387.218 975.796 381.984 976.693C377.444 977.499 373.646 976.613 369.446 975.03C349.316 967.439 329.398 959.034 309.406 951.168L167.78 895.48L79.9586 861.337C71.3815 857.983 60.2058 854.292 52.098 850.194C51.2661 849.909 50.2672 847.64 50.3872 846.735C55.6294 807.213 89.0792 753.134 113.329 725.397C167.664 663.278 244.517 625.378 326.875 620.087C349.983 618.569 372.086 620.44 394.713 625.032C399.474 625.998 407.35 626.734 410.885 629.836C412.796 636.044 409.153 695.046 408.776 704.792C406.882 762.38 404.57 819.953 401.84 877.508C401.629 880.043 401.409 882.337 401.423 884.893C401.293 892.907 401.039 900.917 400.663 908.923C400.511 912.112 399.888 920.389 400.062 923.229C399.816 925.502 399.415 928.231 399.512 930.474Z"/><path fill="#DE5302" d="M62.9048 824.676L63.0947 823.95C66.6151 810.909 77.3056 790.037 83.9452 778.204C112.052 728.111 152.186 690.277 202.354 662.258C249.186 636.301 302.313 623.878 355.799 626.376C371.507 627.125 386.375 628.848 401.531 633.142C401.55 636.083 401.32 639.372 401.176 642.344C401.021 646.796 400.787 662.014 400.138 665.866L388.365 951.869C385.249 950.848 381.597 949.745 378.599 948.534C372.015 937.081 362.152 926.549 354.21 915.913C331.154 885.036 305.535 856.101 282.125 825.494C278.418 820.647 274.239 815.854 270.234 811.233C276.788 812.031 281.624 812.68 288.077 811.113C301.223 807.921 310.554 797.841 312.273 784.385C313.319 776.198 311.039 767.932 305.943 761.439C300.418 754.329 292 749.909 283.099 748.9C274.054 747.868 264.97 750.487 257.862 756.176C249.088 763.269 247.417 770.656 246.331 781.1C227.54 757.931 207.432 735.511 189.059 711.978C187.501 712.321 182.644 716.142 181.368 717.338C148.538 745.615 127.57 768.058 107.231 807.336C103.007 815.494 96.4228 828.137 94.0608 836.86C88.6976 835.694 75.0237 829.898 69.6091 827.59C66.8132 825.936 65.8852 825.658 62.9048 824.676Z"/><path fill="#FF9D38" d="M62.9048 824.676L63.0947 823.95C66.6151 810.909 77.3056 790.037 83.9452 778.204C112.052 728.111 152.186 690.277 202.354 662.258C249.186 636.301 302.313 623.878 355.799 626.376C371.507 627.125 386.375 628.848 401.531 633.142C401.55 636.083 401.32 639.372 401.176 642.344C401.021 646.796 400.787 662.014 400.138 665.866C332.146 649.898 265.882 663.921 206.611 700.095C203.051 702.268 191.77 709.513 189.059 711.978C187.501 712.321 182.644 716.142 181.368 717.338C148.538 745.615 127.57 768.058 107.231 807.336C103.007 815.494 96.4228 828.137 94.0608 836.86C88.6976 835.694 75.0237 829.898 69.6091 827.59C66.8132 825.936 65.8852 825.658 62.9048 824.676Z"/><path fill="#DE5302" d="M62.9048 824.676L63.0947 823.95C66.6151 810.909 77.3056 790.037 83.9452 778.204C112.052 728.111 152.186 690.277 202.354 662.258C249.186 636.301 302.313 623.878 355.799 626.376C371.507 627.125 386.375 628.848 401.531 633.142C401.55 636.083 401.32 639.372 401.176 642.344C389.187 639.336 379.208 636.704 366.799 635.259C305.895 628.166 246.463 645.551 194.395 676.647C179.358 685.626 168.871 694.018 155.68 705.05C114.355 739.61 88.8629 777.571 69.6091 827.59C66.8132 825.936 65.8852 825.658 62.9048 824.676Z"/><path fill="white" d="M335.691 667.432C363.358 665.233 387.546 685.93 389.654 713.604C391.761 741.277 370.985 765.397 343.304 767.413C315.752 769.42 291.769 748.762 289.671 721.216C287.574 693.671 308.153 669.62 335.691 667.432Z"/><path fill="white" d="M341.562 676.545C362.117 677.285 378.902 693.221 380.708 713.71C382.513 734.199 368.774 752.825 348.664 757.148C333.242 760.464 317.29 754.584 307.708 742.052C298.126 729.52 296.634 712.585 303.876 698.571C311.119 684.557 325.796 675.978 341.562 676.545Z"/><path fill="#DE5302" d="M341.562 676.545C338.241 678.869 334.248 679.852 330.789 682.104C312.366 694.097 307.58 720.544 319.574 738.548C324.714 746.224 332.285 751.95 341.07 754.806C342.824 755.393 347.434 756.478 348.664 757.148C333.242 760.464 317.29 754.584 307.708 742.052C298.126 729.52 296.634 712.585 303.876 698.571C311.119 684.557 325.796 675.978 341.562 676.545Z"/><path fill="white" d="M353.362 784.558C370.652 782.355 386.449 794.596 388.632 811.888C390.816 829.18 378.557 844.963 361.263 847.128C343.996 849.289 328.242 837.054 326.062 819.789C323.882 802.524 336.1 786.757 353.362 784.558Z"/><path fill="#DE5302" d="M354.918 790.512C368.736 789.07 381.144 799.008 382.757 812.807C384.369 826.606 374.586 839.136 360.808 840.919C351.742 842.092 342.746 838.299 337.258 830.989C331.769 823.679 330.636 813.982 334.291 805.604C337.947 797.226 345.826 791.461 354.918 790.512Z"/><path fill="white" d="M355.113 796.026C365.908 795.102 375.428 803.059 376.434 813.847C377.44 824.635 369.556 834.215 358.776 835.303C347.88 836.403 338.173 828.415 337.156 817.51C336.139 806.606 344.201 796.96 355.113 796.026Z"/><path fill="#DE5302" d="M353.432 802.715C358.143 801.5 363.142 802.931 366.496 806.454C369.85 809.977 371.034 815.04 369.589 819.685C368.144 824.33 364.298 827.829 359.537 828.828C352.404 830.325 345.381 825.852 343.722 818.755C342.063 811.658 346.375 804.535 353.432 802.715Z"/><path fill="white" d="M250.585 688.086C267.195 686.532 281.896 698.794 283.349 715.413C284.802 732.032 272.452 746.658 255.824 748.011C239.338 749.352 224.863 737.13 223.422 720.652C221.982 704.175 234.116 689.626 250.585 688.086Z"/><path fill="#DE5302" d="M249.209 694.749C262.12 692.356 274.526 700.886 276.913 713.799C279.3 726.711 270.765 739.113 257.851 741.495C244.945 743.875 232.553 735.346 230.167 722.441C227.781 709.536 236.305 697.14 249.209 694.749Z"/><path fill="white" d="M249.742 699.672C256.497 698.417 263.406 700.89 267.831 706.147C272.255 711.404 273.513 718.633 271.123 725.075C268.733 731.518 263.065 736.178 256.282 737.277C245.961 738.95 236.216 732.008 234.424 721.707C232.633 711.407 239.462 701.582 249.742 699.672Z"/><path fill="#DE5302" d="M252.591 705.806C259.618 705.528 265.551 710.979 265.868 718.005C266.185 725.031 260.768 730.994 253.744 731.351C246.664 731.71 240.642 726.241 240.323 719.158C240.003 712.076 245.507 706.086 252.591 705.806Z"/><path fill="white" d="M362.273 858.158C381.176 857.111 383.825 875.563 363.548 877.36C374.819 880.428 391.126 887.207 381.227 903.065C377.952 908.311 369.628 911.103 363.566 911.83C358.632 911.936 351.25 910.095 352.035 903.731C353.007 895.854 363.944 896.814 368.193 893.639C366.593 887.6 345.389 889.543 344.499 877.767C343.598 865.842 351.265 859.741 362.273 858.158Z"/><path fill="#DE5302" d="M362.534 864.117C365.826 863.931 370.856 863.57 370.945 867.938C369.369 870.927 367.337 871.099 364.102 872.142C363.366 870.296 363.05 868.696 360.859 868.195C357.365 867.397 354.972 870.512 354.785 873.705C354.621 876.497 356.37 878.108 358.247 879.887C360.325 881.381 364.593 883.575 366.989 884.892C360.978 883.271 345.548 880.454 352.128 870.429C354.676 866.547 358.088 864.953 362.534 864.117Z"/><path fill="#DE5302" d="M369.171 885.839C383.795 887.153 381.018 904.714 361.682 906.183C360.867 906.052 359.575 905.641 358.737 905.406L358.087 904.226C358.253 902.686 366.162 901.385 367.837 900.747C377.701 896.989 377.245 891.086 369.171 885.839Z"/><path fill="#DE5302" d="M181.368 717.338C190.925 728.569 200.208 740.808 209.616 752.258L286.504 846.491C306.546 871.272 327.011 895.421 346.195 920.952C351.999 928.676 358.341 935.797 364.055 943.707C347.952 936.291 324.845 927.856 307.833 921.138L227.48 888.925C204.843 879.96 181.016 871.225 158.684 862.221L113.543 844.372C107.729 842.128 99.844 838.765 94.0608 836.86C96.4228 828.137 103.007 815.494 107.231 807.336C127.57 768.058 148.538 745.615 181.368 717.338Z"/><path fill="white" d="M174.6 767.73C201.95 763.839 227.283 782.837 231.207 810.182C235.132 837.528 216.164 862.884 188.823 866.841C161.436 870.805 136.027 851.798 132.096 824.406C128.165 797.014 147.203 771.628 174.6 767.73Z"/><path fill="white" d="M190.008 857.256C174.216 860.491 158 854.117 148.638 840.994C139.275 827.871 138.524 810.464 146.721 796.583C154.919 782.703 170.525 774.956 186.538 776.818C206.43 779.132 221.696 795.55 222.559 815.558C223.422 835.565 209.627 853.237 190.008 857.256Z"/><path fill="#DE5302" d="M190.008 857.256C174.216 860.491 158 854.117 148.638 840.994C139.275 827.871 138.524 810.464 146.721 796.583C154.919 782.703 170.525 774.956 186.538 776.818L185.818 777.194C182.63 778.822 178.434 779.516 175.297 781.327C157.692 791.49 149.473 814.452 159.178 832.893C165.378 844.674 174.518 852.684 187.317 856.195C188.313 856.456 189.129 856.721 190.008 857.256Z"/><path fill="white" d="M264.559 843.681C278.783 843.008 290.912 853.881 291.791 868.094C292.669 882.307 281.972 894.592 267.774 895.676C258.405 896.391 249.376 892.005 244.147 884.198C238.918 876.391 238.299 866.373 242.526 857.982C246.754 849.59 255.173 844.125 264.559 843.681Z"/><path fill="#DE5302" d="M262.549 850.01C273.454 848.211 283.741 855.63 285.476 866.546C287.211 877.462 279.732 887.705 268.806 889.376C257.97 891.034 247.829 883.629 246.108 872.803C244.388 861.977 251.733 851.793 262.549 850.01Z"/><path fill="white" d="M263.317 853.794C272.403 852.463 280.844 858.762 282.153 867.852C283.463 876.941 277.143 885.367 268.05 886.654C258.988 887.937 250.598 881.644 249.293 872.585C247.988 863.526 254.261 855.121 263.317 853.794Z"/><path fill="#DE5302" d="M263.554 859.871C267.314 859.15 271.17 860.513 273.642 863.437C276.113 866.361 276.815 870.39 275.479 873.977C274.142 877.565 270.975 880.152 267.193 880.746C261.48 881.643 256.103 877.795 255.11 872.098C254.117 866.401 257.875 860.959 263.554 859.871Z"/><path fill="#DE5302" d="M59.8207 833.777C66.7324 836.893 74.569 839.53 81.7413 842.28L122.947 858.209L243.909 906.191L336.879 943.056C351.493 948.879 375.743 959.902 389.899 962.886C388.245 965.351 387.8 966.149 385.455 968.126C384.536 968.57 383.599 968.974 382.645 969.339C379.499 970.532 377.033 970.171 373.944 969.056C353.629 961.727 333.617 953.181 313.583 945.296L206.051 903.271L102.043 862.636C93.9051 859.368 85.7489 856.147 77.5744 852.972C70.9956 850.473 63.3945 847.909 57.0605 845.096C57.7611 840.362 58.2977 838.249 59.8207 833.777Z"/><path fill="#DE5302" d="M274.305 754.729C288.549 752.029 302.296 761.348 305.063 775.579C307.829 789.81 298.574 803.601 284.356 806.434C270.044 809.285 256.142 799.956 253.358 785.63C250.573 771.305 259.967 757.447 274.305 754.729Z"/><path fill="white" d="M277.44 760.721C288.4 759.439 298.333 767.26 299.657 778.215C300.981 789.169 293.198 799.132 282.249 800.498C271.24 801.872 261.211 794.037 259.88 783.023C258.548 772.009 266.421 762.011 277.44 760.721Z"/><path fill="#DE5302" d="M277.216 767.403C284.582 766.017 291.699 770.796 293.204 778.139C294.709 785.482 290.046 792.674 282.729 794.299C277.888 795.373 272.845 793.754 269.534 790.063C266.223 786.372 265.16 781.183 266.752 776.488C268.343 771.792 272.343 768.319 277.216 767.403Z"/><path fill="white" d="M677.436 589.547C682.629 585.791 689.568 581.862 695.054 578.215C698.949 575.625 706.545 570.074 710.217 568.48C715.609 577.467 721.594 586.607 726.764 595.617C736.098 590.137 748.299 582.413 756.763 575.82C760.365 581.432 764.022 587.008 767.735 592.548L796.119 573.924C805.181 589.504 815.149 604.644 824.164 620.266C825.743 623.002 827.397 625.874 829.269 628.403C831.224 626.942 834.778 625.917 837.209 626.387C841.684 627.254 844.98 631.19 847.322 634.86C853.584 644.671 859.248 654.855 864.819 665.071C866.128 667.47 867.581 670.083 869.187 672.29C870.418 675.087 872.719 678.404 874.439 681.055C875.794 684.527 878.978 688.978 880.857 692.359C885.273 700.303 891.287 709.399 895.24 717.435C896.79 719.984 898.308 722.552 899.793 725.139L944.858 803.587L961.982 833.479C979.644 864.523 979.516 863.668 949.365 880.838L911.449 902.368C878.039 921.78 844.443 940.869 810.665 959.633C803.46 963.712 796.387 968.073 789.157 972.164C784.124 975.075 778.676 977.024 772.854 975.274C769.726 974.334 766.366 971.488 764.498 968.859C759.232 961.447 754.711 952.706 750.271 944.784C742.947 931.68 735.506 918.641 727.951 905.668C726.773 903.639 722.408 895.71 720.893 894.781C720.55 893.574 718.4 890.209 717.639 888.931C715.444 883.424 702.516 861.144 699.179 856.252C697.478 853.74 696.679 852.318 695.288 849.665C691.61 842.165 685.563 832.092 681.374 824.676L652.306 773.424C650.362 769.954 648.173 765.841 646.048 762.507C637.422 748.975 633.573 741.194 648.703 729.964C647.119 726.185 640.925 716.991 638.573 713.126C631.188 700.991 622.901 688.843 615.887 676.51C625.708 669.657 636.786 662.564 646.844 655.962C642.154 647.767 636.995 639.756 632.188 631.603C640.529 626.445 656.553 614.38 663.966 610.702C666.353 614.596 669.177 620.354 671.371 624.503C677.662 620.144 684.424 615.95 690.856 611.529C686.207 604.296 681.57 597.089 677.436 589.547Z"/><path fill="#513636" d="M677.436 589.547C682.629 585.791 689.568 581.862 695.054 578.215C698.949 575.625 706.545 570.074 710.217 568.48C715.609 577.467 721.594 586.607 726.764 595.617C736.098 590.137 748.299 582.413 756.763 575.82C760.365 581.432 764.022 587.008 767.735 592.548L796.119 573.924C805.181 589.504 815.149 604.644 824.164 620.266C825.743 623.002 827.397 625.874 829.269 628.403C828.42 629.966 825.862 632.135 824.016 631.935C816.06 636.424 807.851 640.838 800.298 645.987C799.016 646.589 796.009 648.112 794.825 648.541C787.253 652.44 781.311 655.108 777.042 662.699C777.038 664.604 777.14 669.886 776.779 671.523C777.948 675.097 777.586 681.178 777.494 685.048C778.033 697.85 772.669 707.255 765.247 717.459C763.718 718.831 762.287 720.092 760.7 721.395C754.453 725.226 741.82 731.147 734.523 730.502C732.151 731.191 729.447 731.536 727.451 729.871C719.69 729.273 709.395 724.474 704.75 718.065C701.814 714.376 699.491 709.409 695.319 706.991C690.163 704.004 686.331 708.901 681.854 710.054C680.163 711.32 678.442 712.65 676.718 713.86C667.636 718.062 662.103 722.784 654.271 726.942C652.311 728.089 650.747 728.982 648.703 729.964C647.119 726.185 640.925 716.991 638.573 713.126C631.188 700.991 622.901 688.843 615.887 676.51C625.708 669.657 636.786 662.564 646.844 655.962C642.154 647.767 636.995 639.756 632.188 631.603C640.529 626.445 656.553 614.38 663.966 610.702C666.353 614.596 669.177 620.354 671.371 624.503C677.662 620.144 684.424 615.95 690.856 611.529C686.207 604.296 681.57 597.089 677.436 589.547Z"/><path fill="#FF9D38" d="M695.752 615.761C707.73 633.656 718.442 652.529 729.754 670.782C740.314 687.82 750.763 703.911 760.7 721.395C754.453 725.226 741.82 731.147 734.523 730.502C720.811 710.423 709.208 688.159 696.042 667.676C688.087 655.3 681.052 642.718 674.138 629.751C681.279 625.481 688.23 620.222 695.752 615.761Z"/><path fill="#FF9D38" d="M716.604 637.104C723.968 632.283 731.26 627.35 738.475 622.308C748.826 636.72 757.894 653.359 767.826 668.185C771.323 673.405 774.022 679.899 777.494 685.048C778.033 697.85 772.669 707.255 765.247 717.459L730.658 660.381C726.691 653.848 719.755 643.827 716.604 637.104Z"/><path fill="#FF9D38" d="M650.556 660.698C658.932 655.785 667.261 649.957 675.374 645.295C683.76 659.567 692.607 673.46 701.311 687.538C709.934 701.704 718.648 715.816 727.451 729.871C719.69 729.273 709.395 724.474 704.75 718.065C701.814 714.376 699.491 709.409 695.319 706.991C690.163 704.004 686.331 708.901 681.854 710.054C672.98 694.644 660.292 676.066 650.556 660.698Z"/><path fill="#FF9D38" d="M764.953 600.063C771.508 609.2 778.185 620.819 784.188 630.459C787.033 635.028 792.741 644.13 794.825 648.541C787.253 652.44 781.311 655.108 777.042 662.699C777.038 664.604 777.14 669.886 776.779 671.523C773.162 666.946 766.68 655.988 763.433 650.773C756.294 639.441 749.241 628.055 742.274 616.617C749.425 610.97 757.515 605.513 764.953 600.063Z"/><path fill="#FF9D38" d="M645.706 663.967C650.772 671.102 656.666 681.043 661.404 688.543C666.071 695.931 672.836 706.253 676.718 713.86C667.636 718.062 662.103 722.784 654.271 726.942C644.372 712.219 633.426 693.389 624.559 677.995C631.485 673.31 638.616 668.345 645.706 663.967Z"/><path fill="#FF9D38" d="M798.657 589.474C803.653 597.22 808.525 605.517 813.299 613.442C816.712 619.106 821.176 626.112 824.016 631.935C816.06 636.424 807.851 640.838 800.298 645.987C797.697 642.189 794.396 636.194 791.875 632.009C786.273 622.822 780.727 613.601 775.236 604.347C782.967 599.272 790.775 594.313 798.657 589.474Z"/><path fill="#DE5302" d="M732.586 600.298C738.866 595.162 748.158 589.175 755.057 584.494C758.522 589.577 761.822 594.769 764.953 600.063C757.515 605.513 749.425 610.97 742.274 616.617C738.901 611.141 735.681 605.94 732.586 600.298Z"/><path fill="#DE5302" d="M710.114 627.297C717.528 623.202 725.399 617.979 732.399 613.227C734.643 616.332 736.428 619.064 738.475 622.308C731.26 627.35 723.968 632.283 716.604 637.104L710.114 627.297Z"/><path fill="#DE5302" d="M794.926 582.095C796.051 584.487 797.445 587.095 798.657 589.474C790.775 594.313 782.967 599.272 775.236 604.347L770.897 597.299C777.718 592.367 787.622 586.473 794.926 582.095Z"/><path fill="#FF9D38" d="M707.746 576.488C709.788 578.641 715.274 587.812 717.173 590.876C720.915 596.964 724.784 602.973 728.776 608.9C721.6 613.29 714.514 617.824 707.521 622.5C698.757 610.289 693.223 604.89 685.547 591.309C693.083 586.576 700.486 581.634 707.746 576.488Z"/><path fill="#DE5302" d="M661.444 619.397C663.524 620.82 670.924 635.674 672.858 639.256C666.847 642.888 658.362 649.218 652.421 653.376C648.61 647.639 643.475 639.336 640.144 633.43C646.651 628.98 654.738 623.143 661.444 619.397Z"/><path fill="#DE5302" d="M834.947 640.415C837.576 642.132 867.671 695.487 871.968 702.936L931.568 806.942C936.201 815.097 958.748 852.457 960.373 858.589C956.903 862.532 926.775 878.544 919.317 882.816L777.263 963.376C774.377 959.999 770.765 953.48 768.402 949.467C761.049 938.13 752.754 922.321 746.026 910.343L713.237 852.37C708.26 843.442 703.02 834.968 697.986 826.147L652.425 745.526C658.654 738.64 681.879 726.239 690.955 720.785C700.527 735.704 715.95 743.943 733.748 743.978C748.953 743.908 763.516 737.837 774.268 727.087C783.829 717.488 789.427 704.911 790.842 691.507C791.714 683.244 790.528 674.84 790.53 666.485C793.399 664.046 795.554 662.873 798.811 661.073C810.939 654.367 822.79 647.063 834.947 640.415Z"/><path fill="white" d="M841.617 728.096C859.098 726.968 865.858 742.014 863.167 757.298C861.205 768.439 855.746 780.064 851.355 790.496C846.655 801.753 841.874 812.976 837.014 824.164C831.133 837.842 825.827 852.346 820.551 866.315C836.978 860.138 853.187 853.393 869.147 846.094C875.996 842.994 882.462 838.938 889.434 836.095C896.724 832.879 902.492 842.576 894.754 846.56C873.01 857.754 851.722 868.057 828.621 876.216C823.956 877.93 819.072 879.384 814.319 880.871C812.275 888.411 809.317 895.793 806.964 903.249C804.442 911.241 802.506 919.806 799.288 927.529C798.684 928.978 798.024 930.345 796.757 931.333C795.545 932.278 794.175 932.603 792.682 932.268C790.976 931.885 788.855 930.52 788.095 928.895C785.963 924.332 798.954 888.212 801.248 882.003C785.34 881.643 772.869 873.385 769.803 856.833C764.631 828.901 779.347 801.837 792.292 778.062C793.837 775.224 795.988 771.886 797.808 769.24C808.495 753.701 821.979 732.129 841.617 728.096Z"/><path fill="#DE5302" d="M844.072 740.025C853.733 739.598 851.261 756.05 849.442 761.777C843.871 779.318 835.567 796.45 828.282 813.361C820.273 831.952 812.933 850.525 805.45 869.292C799.343 869.899 796.726 869.918 791.201 867.718C768.262 855.698 790.37 804.85 800.372 788.828C810.51 772.59 824.532 745.474 844.072 740.025Z"/><path fill="#2A2626" d="M791.988 126.686L804.437 84.2382C806.556 76.8346 807.954 68.1876 811.304 61.2838C812.721 58.3642 814.569 56.3353 817.453 54.8033C820.881 52.9822 879.971 40.5453 888.656 39.311C890.878 38.9952 893.305 38.5832 895.47 39.3622C898.734 40.5367 901.029 43.1502 902.34 46.295C903.971 50.2058 904.882 55.3792 903.233 59.4266C902.075 62.2705 899.88 64.2181 897.071 65.3546C890.53 68.0019 882.498 68.924 875.588 70.3143C862.854 72.8764 849.974 75.3426 837.384 78.5544C836.564 79.6994 835.76 80.8546 834.929 81.9911C831.243 87.0316 820.953 124.74 817.79 134.351C859.143 155.612 880.085 185.651 878.632 232.847C884.748 234.358 889.029 236.543 892.383 242.319C895.288 247.368 896.002 253.385 894.361 258.975C892.039 266.894 887.235 270.662 879.666 272.994C944.121 363.09 969.911 475.202 951.303 584.406C943.032 634.111 925.563 681.838 899.793 725.139C898.308 722.552 896.79 719.984 895.24 717.435C897.822 714.189 902.883 704.613 904.927 700.802C924.448 664.406 939.13 617.078 945.239 576.412C961.902 469.548 935.145 360.458 870.925 273.433L859.275 271.103C854.021 282.554 844.566 299.015 838.322 309.912C831.647 321.528 825.108 333.221 818.707 344.989L791.211 395.767C786.993 403.554 782.922 411.365 778.487 419.135C772.402 429.409 759.541 433.869 748.128 432.059C742.157 430.895 735.807 429.588 729.961 427.775C713.819 422.769 693.506 419.373 678.311 412.452C668.181 407.838 659.474 394.714 659.29 383.743C659.137 374.672 660.271 364.961 661.301 355.629C662.785 342.08 664.349 328.54 665.991 315.009C669.862 281.6 672.754 246.645 677.861 213.534C676.542 212.995 675.241 212.412 673.962 211.785C668.23 208.972 664.052 205.314 662.062 199.007C660.331 193.623 660.87 187.766 663.556 182.789C667.513 175.609 673.5 173.529 680.741 171.518C679.582 170.834 678.326 170.254 677.112 169.66C594.254 128.38 498.359 121.828 410.656 151.454C408.9 150.159 403.789 148.32 401.501 147.414C398.725 148.035 394.934 145.713 392.035 145.566C386.367 145.28 380.559 147.407 375.246 149.137C379.704 140.584 385.073 132.941 383.465 122.438C383.176 120.547 381.525 116.531 380.877 114.234C379.49 111.278 379.137 110.893 376.994 108.471C480.232 70.0618 594.517 74.3501 694.587 120.387C704.525 124.848 717.484 130.735 726.487 136.85C749.915 126.04 766.986 124.56 791.988 126.686Z"/><path fill="#DE5302" d="M380.877 114.234C484.06 76.2893 598.204 81.698 697.337 129.229C704.91 132.78 712.385 136.831 719.793 140.74C705.229 150.638 700.906 155.056 689.63 168.189C611.941 126.666 511.747 113.658 426.999 139.37C418.481 141.993 409.982 144.674 401.501 147.414C398.725 148.035 394.934 145.713 392.035 145.566C386.367 145.28 380.559 147.407 375.246 149.137C379.704 140.584 385.073 132.941 383.465 122.438C383.176 120.547 381.525 116.531 380.877 114.234Z"/><path fill="white" d="M685.77 216.6C704.154 223.605 849.036 265.687 851.287 268.688L850.302 270.492C849.068 273.509 845.898 278.725 844.202 281.795C839.317 290.661 834.364 299.489 829.344 308.278C819.005 326.793 808.322 347.825 797.513 365.781C791.567 376.394 786.156 387.424 780.348 398.366C773.76 411.208 767.863 425.784 750.263 423.622C746.52 423.074 742.783 422.147 739.137 421.168C722.136 416.603 705.054 412.319 688.135 407.46C677.971 404.541 673.723 399.614 669.432 390.422C666.086 378.579 669.988 355.177 671.447 341.997C673.22 325.976 674.796 308.631 677.218 292.748L685.77 216.6Z"/><path fill="#DE5302" d="M685.77 216.6C704.154 223.605 849.036 265.687 851.287 268.688L850.302 270.492C835.259 285.118 815.578 296.903 794.032 295.965C756.321 294.323 743.596 263.436 701.024 279.948C690.545 284.012 686.002 288.289 677.218 292.748L685.77 216.6Z"/><path fill="#DE5302" d="M669.432 390.422C716.572 351.586 736.303 325.182 797.513 365.781C791.567 376.394 786.156 387.424 780.348 398.366C773.76 411.208 767.863 425.784 750.263 423.622C746.52 423.074 742.783 422.147 739.137 421.168C722.136 416.603 705.054 412.319 688.135 407.46C677.971 404.541 673.723 399.614 669.432 390.422Z"/><path fill="#DE5302" d="M769.281 176.186C777.829 174.733 789.972 177.051 797.871 180.689C810.481 186.562 820.255 197.187 825.057 210.243C829.806 223.32 829.19 237.745 823.342 250.369C813.658 248.09 801.676 244.113 792.006 241.177C789.125 240.155 786.057 239.35 783.128 238.441C763.16 232.24 742.922 226.29 723.162 219.453C728.767 195.741 744.367 179.077 769.281 176.186Z"/><path fill="#DE5302" d="M771.767 132.716C796.69 130.437 828.747 145.05 845.926 162.69C860.386 177.338 869.325 196.543 871.222 217.039C871.754 223.263 871.507 231.628 871.451 238.018C877.333 240.384 882.006 239.702 885.858 245.547C887.779 248.465 888.43 252.039 887.662 255.447C886.843 259.082 884.532 262.204 881.295 264.049C873.883 268.231 859.825 262.211 851.492 259.661C866.043 225.233 856.539 189.307 828.133 165.368C790.305 135.947 737.333 141.565 708.434 180.045C701.304 189.539 697.803 199.761 694.15 210.843C688.138 209.05 676.158 206.362 672.142 201.945C669.533 199.036 668.24 195.179 668.569 191.285C669.642 178.229 680.92 179.12 690.316 179.984C693.181 176.746 696.057 171.607 699.369 167.983C720.861 144.466 740.966 135.073 771.767 132.716Z"/><path fill="#DE5302" d="M772.23 153.712C788.24 153.237 803.998 157.78 817.298 166.705C835.2 178.469 845.155 194.38 849.857 215.262C852.618 227.522 850.953 246.568 844.066 257.134C839.475 255.842 834.792 254.176 830.26 252.643C840.425 226.613 835.606 201.032 814.131 182.557C783.749 159.446 741.336 166.078 722.358 200.378C719.297 205.91 717.921 211.095 716.467 217.214C711.331 215.875 706.234 214.391 701.182 212.764C704.539 201.264 709.528 188.602 717.671 179.655C732.776 163.058 750.267 155.271 772.23 153.712Z"/><path fill="#DE5302" d="M891.309 46.1685C893.47 46.3989 894.625 47.321 895.517 49.2417C900.786 60.5962 886.714 60.4748 879.428 62.1241C865.984 65.1673 852.365 67.3203 839.068 70.7958C837.711 64.513 837.471 62.9446 832.835 58.4128C851.631 54.2592 872.404 49.516 891.309 46.1685Z"/><path fill="#DE5302" d="M814.134 77.7776C818.347 81.7089 820.005 82.2273 825.438 83.1672C823.514 92.77 821.016 99.2877 818.078 108.568C815.625 116.329 813.341 124.144 811.229 132.005C806.739 130.28 803.802 129.366 799.148 128.12C803.537 112.493 809.09 93.118 814.134 77.7776Z"/><path fill="#DE5302" d="M695.288 849.665C696.679 852.318 697.478 853.74 699.179 856.252C702.516 861.144 715.444 883.424 717.639 888.931C718.4 890.209 720.55 893.574 720.893 894.781C638.181 941.256 541.987 957.828 448.492 941.71C429.834 938.667 417.197 934.673 399.512 930.474C399.415 928.231 399.816 925.502 400.062 923.229C399.888 920.389 400.511 912.112 400.663 908.923C401.039 900.917 401.293 892.907 401.423 884.893C401.409 882.337 401.629 880.043 401.84 877.508C407.828 879.956 420.174 883.421 426.638 885.17C517.364 909.263 613.936 896.5 695.288 849.665Z"/><path fill="#2A2626" d="M717.639 888.931C718.4 890.209 720.55 893.574 720.893 894.781C638.181 941.256 541.987 957.828 448.492 941.71C429.834 938.667 417.197 934.673 399.512 930.474C399.415 928.231 399.816 925.502 400.062 923.229C415.325 928.843 440.023 933.534 455.988 935.922C522.496 946.453 590.582 940.188 654.052 917.697C678.33 909.145 695.002 900.242 717.639 888.931Z"/><path fill="#2A2626" d="M695.288 849.665C696.679 852.318 697.478 853.74 699.179 856.252C679.923 865.453 663.082 874.062 642.742 881.616C579.616 904.834 511.282 910.057 445.362 896.703C430.001 893.545 416.325 889.063 401.423 884.893C401.409 882.337 401.629 880.043 401.84 877.508C407.828 879.956 420.174 883.421 426.638 885.17C517.364 909.263 613.936 896.5 695.288 849.665Z"/><path fill="#2A2626" d="M399.545 470.562C400.531 470.5 401.519 470.464 402.507 470.453C428.823 470.288 424.009 518.686 408.546 530.434C400.147 536.815 394.42 536.722 384.261 535.917L382.077 556.379L381.929 557.352C379.698 558.872 370.651 558.415 367.442 558.395C369.386 543.476 371.225 528.543 372.958 513.598C374.654 499.463 376.528 485.78 377.022 471.532L386.623 471.332L387.208 477.345C391.892 473.118 393.724 472.136 399.545 470.562Z"/><path fill="#DE5302" d="M398.907 482.174C401.904 482.589 404.5 483.929 405.379 487.028C408.875 499.354 406.373 519.467 393.417 525.19C390.676 525.742 388.615 525.547 385.852 525.444C387.147 514.341 388.706 495.99 390.721 485.505C393.752 483.242 395.196 482.721 398.907 482.174Z"/><path fill="#2A2626" d="M869.187 672.29C874.631 664.015 880.231 649.165 883.682 639.899C907.758 575.259 914.425 503.218 899.151 435.705C891.952 404.227 880.189 373.971 864.235 345.898C858.452 335.708 852.099 326.204 845.792 316.376C844.916 315.011 844.537 312.908 844.745 311.284C846.453 308.651 848.979 309.14 850.675 311.424C926.725 413.783 932.312 555.423 879.541 669.329C877.8 673.086 875.824 677.158 874.439 681.055C872.719 678.404 870.418 675.087 869.187 672.29Z"/><path fill="white" d="M829.242 458.763C845.351 455.891 860.719 466.68 863.492 482.805C866.265 498.931 855.382 514.233 839.24 516.907C823.237 519.557 808.096 508.79 805.347 492.803C802.598 476.816 813.273 461.61 829.242 458.763Z"/><path fill="#DE5302" d="M831.38 465.879C843.617 464.168 854.907 472.75 856.533 484.998C858.159 497.247 849.499 508.476 837.239 510.017C825.1 511.543 814.003 502.986 812.393 490.857C810.783 478.728 819.263 467.573 831.38 465.879Z"/><path fill="#2A2626" d="M641.356 470.717C646.281 470.397 651.253 471.568 655.884 473.101C654.332 495.909 649.349 511.892 652.733 535.419C648.807 535.378 644.88 535.386 640.954 535.445C640.085 532.851 639.47 529.886 638.834 527.202C635.629 529.732 633.579 531.702 630.073 534.074C628.336 534.826 626.197 535.606 624.318 535.79C620.733 536.167 617.151 535.04 614.428 532.678C604.397 523.972 606.7 502.863 611.344 491.807C617.086 478.136 626.79 471.779 641.356 470.717Z"/><path fill="#DE5302" d="M640.95 481.669L641.571 482.491C640.497 491.634 638.906 500.743 638.147 509.926C637.672 515.68 637.334 521.875 630.952 523.913C628.136 524.812 626.849 524.919 624.194 523.566C618.705 512.774 622.236 492 632.374 484.715C635.3 482.612 637.463 482.152 640.95 481.669Z"/><path fill="#2A2626" d="M98.4873 373.246C104.801 375.497 102.091 379.607 100.468 384.549C97.783 392.728 94.8944 400.938 92.4822 409.202C87.4392 426.882 83.7704 444.926 81.5084 463.172C72.7758 536.02 82.3359 607.379 111.56 674.732C114.297 681.038 117.052 687.334 119.824 693.625L115.007 697.086L114.708 697.313L113.924 697.132C110.992 692.34 102.816 672.448 100.165 665.922C72.1592 595.661 64.1075 519.028 76.8983 444.481C78.8391 433.213 91.1516 378.416 98.4873 373.246Z"/><path fill="#2A2626" d="M279.021 448.003C292.29 447.829 305.561 447.797 318.831 447.906C317.575 452.084 316.342 456.269 315.132 460.461C307.482 460.616 299.589 460.54 291.92 460.561C291.112 468.215 290.395 475.878 289.77 483.55C297.069 483.487 304.367 483.291 311.659 482.964C310.373 487.418 309.122 491.883 307.907 496.357L288.767 496.194C287.79 502.506 286.934 508.228 286.296 514.584L285.51 522.33C294.777 522.567 300.487 522.754 309.768 521.529C309.366 525.947 308.366 530.883 307.581 535.296C296.022 534.579 281.063 535.12 269.314 535.255C271.938 506.751 275.998 476.61 279.021 448.003Z"/><path fill="#2A2626" d="M732.102 470.187C747.515 470.774 752.108 483.551 744.004 495.99C738.652 504.205 725.151 507.272 715.826 508.678C716.738 524.693 726.662 528.043 739.38 519.01C740.619 522.345 741.793 525.84 742.976 529.208C726.464 540.814 704.899 537.522 702.744 514.224C700.883 494.102 709.609 472.443 732.102 470.187Z"/><path fill="#DE5302" d="M727.526 481.506C732.678 481.225 736.954 482.8 734.456 488.951C732.225 494.445 728.42 496.687 723.35 499.047C721.134 499.897 718.943 500.457 716.66 501.096C718.272 493.092 719.531 485.433 727.526 481.506Z"/><path fill="#2A2626" d="M494.576 470.631C511.817 468.678 519.179 484.204 509.756 497.905C504.891 504.978 491.917 507.35 483.627 508.195C484.566 527.399 493.498 527.908 508.409 519.892C508.775 521.643 509.065 523.601 509.37 525.38C509.475 527.253 509.803 529.42 510.04 531.303C494.21 538.522 475.151 540.084 470.899 517.734C467.54 500.076 473.801 474.237 494.576 470.631Z"/><path fill="#DE5302" d="M494.529 482.066C500.938 482.157 503.067 485.564 500.117 491.45C497.92 495.832 495.216 496.781 490.821 498.062L484.091 499.344C485.746 492.696 487.189 484.413 494.529 482.066Z"/><path fill="#2A2626" d="M127.267 416.524C129.742 416.267 130.77 416.218 132.826 417.437C133.519 418.527 133.821 418.533 133.532 419.907C132.228 426.101 130.622 432.43 129.317 438.618C126.77 450.723 124.827 462.947 123.496 475.245C118.797 519.104 122.168 563.453 133.442 606.098C135.089 612.25 136.925 618.349 138.949 624.387C140.231 628.199 148.948 650.81 148.837 652.828L147.314 653.96L143.293 656.215C140.955 650.917 138.815 645.534 136.877 640.078C114.705 579.885 108.641 514.944 119.285 451.687C120.461 444.511 124.418 422.578 127.267 416.524Z"/><path fill="white" d="M516.095 160.308C516.86 161.268 520.768 170.086 521.445 171.669C527.728 186.35 537.378 190.176 550.957 197.135C526.95 208.475 527.249 208.451 516.109 232.165C514.72 230.826 512.772 225.511 511.909 223.492C504.77 206.794 496.729 204.48 481.405 196.781C505.33 184.944 505.486 183.914 516.095 160.308Z"/><path fill="white" d="M568.244 741.674C572.254 743.244 576.628 757.163 580.586 762.264C585.556 768.67 601.063 772.117 603.26 775.461C601.814 779.589 588.578 782.979 584.396 786.139C576.629 792.007 574.249 800.879 570.269 809.211C565.382 808.877 561.499 794.009 557.446 788.944C552.567 782.847 537.576 779.784 535.267 775.717C536.207 773.049 544.331 771.172 547.219 769.917C560.755 764.034 561.554 752.866 568.244 741.674Z"/><path fill="white" d="M199.982 496.728C212.426 495.304 223.645 504.295 224.966 516.751C226.288 529.206 217.205 540.351 204.739 541.57C192.417 542.775 181.428 533.82 180.122 521.508C178.816 509.196 187.681 498.134 199.982 496.728Z"/><path fill="#DE5302" d="M199.36 503.471C207.949 501.779 216.287 507.36 217.997 515.946C219.707 524.532 214.143 532.881 205.561 534.609C196.954 536.342 188.574 530.759 186.859 522.147C185.144 513.536 190.745 505.168 199.36 503.471Z"/><path fill="#2A2626" d="M353.94 471.431C358.356 471.495 362.937 471.732 367.364 471.899C361.55 482.317 354.635 493.384 348.436 503.678C352.539 514.278 356.421 524.253 360.134 535.013L351.659 535.066L344.69 535.124C342.872 527.933 341.336 520.574 339.484 513.274C335.866 519.878 333.14 528.131 329.574 535.257C323.927 535.443 319.298 535.504 313.64 535.333C321.596 525.243 328.156 513.677 334.816 502.656C330.34 493.173 327.506 482.017 323.356 472.098L330.099 471.714L337.952 471.88C339.922 479.418 341.616 486.237 342.946 493.899C346.162 486.7 350.429 478.641 353.94 471.431Z"/><path fill="#2A2626" d="M683.876 452.2C685.014 451.992 688.797 451.951 690.149 451.903C689.69 457.918 688.612 465.354 687.898 471.453L699.468 471.4C699.225 474.781 699.014 478.165 698.835 481.55L686.14 481.569C685.29 494.03 682.271 506.95 682.176 519.437C682.128 525.809 688.074 524.656 692.383 523.804C692.512 526.433 693.212 532.501 691.892 534.411C665.312 541.339 666.559 522.313 669.613 503.693C670.741 496.816 671.458 488.621 672.285 481.653C670.805 481.572 668.343 481.634 667.212 480.921C667.327 477.673 667.713 474.97 668.141 471.754C670.246 470.245 671.054 472.113 673.235 470.787C674.715 465.582 675.084 458.893 676.238 453.243C678.754 452.788 681.334 452.513 683.876 452.2Z"/><path fill="#2A2626" d="M587.356 470.166C589.258 469.958 594.433 470.48 596.152 471.161C602.032 473.489 597.044 480.826 595.387 483.895C591.394 480.654 586.685 480.22 582.721 483.504C575.696 489.326 583.358 495.31 587.97 499.022C593.641 503.589 596.594 507.246 596.798 514.873C596.974 520.224 594.982 525.42 591.273 529.282C585.928 534.767 579.12 535.948 571.897 536.062C566.762 535.789 564.413 535.246 559.912 532.818C561.288 529.703 563.082 525.28 564.849 522.521C570.377 525.499 578.158 526.904 583.222 520.299C586.437 514.171 575.761 506.233 572.947 503.135C559.622 488.471 570.236 472.486 587.356 470.166Z"/><path fill="#2A2626" d="M546.679 470.197C551.093 470.087 553.259 470.859 556.899 473.081C555.671 476.696 554.662 479.093 553.082 482.585C549.037 481.309 541.477 480.081 538.366 484.132C533.077 491.018 544.624 497.912 548.831 502.174C557.11 510.564 555.694 520.36 548.639 528.955C544.017 534.535 537.08 535.951 530.188 536.392C526.353 535.986 522.607 536.238 520.154 533.525C519.089 530.338 521.587 526.147 523.031 522.791C528.462 525.079 534.673 526.906 539.096 521.399C545.104 514.123 534.793 506.288 529.652 501.805C518.695 492.25 524.4 476.436 536.84 471.915C540.354 470.638 542.982 470.459 546.679 470.197Z"/><path fill="#2A2626" d="M462.342 470.079C464.233 469.942 464.469 469.613 465.952 470.318C466.238 473.8 465.317 481.685 464.949 485.499C461.086 486.25 458.935 486.544 455.747 489.076C450.15 493.385 448.075 500.29 447.312 507.053C446.26 516.377 445.314 525.749 444.267 535.092C439.665 535.096 434.938 535.234 430.325 535.314L430.883 528.616C433.168 508.453 436.31 491.398 435.983 471.083C448.607 470.785 447.232 472.492 448.568 483.946C449.311 482.445 450.082 480.958 450.879 479.485C453.955 473.856 456.379 471.833 462.342 470.079Z"/><path fill="white" d="M540.561 827.202C543.093 829.118 544.259 836.613 547.405 841.393C550.293 843.145 557.279 845.656 558.884 847.259C558.515 850.673 549.864 852.246 547.963 854.151C544.522 857.599 543.855 863.44 540.513 867.612C537.747 863.525 537.1 858.503 534.177 854.675C532.145 852.015 522.081 850.851 522.257 847.126C523.857 845.694 531.301 843.121 534.348 841.664C536.635 836.991 537.479 831.04 540.561 827.202Z"/><path fill="white" d="M565.165 223.812C565.788 224.392 567.501 227.634 567.862 228.517C571.002 236.182 576.255 238.212 583.342 241.992C571.249 247.604 571.058 247.946 565.389 259.861C559.235 247.621 559.589 247.716 546.665 241.616C558.774 235.839 559.229 236.337 565.165 223.812Z"/><path fill="white" d="M499.627 797.294C500.374 797.926 503.118 804.073 504.843 806.546C507.541 807.759 510.064 809.041 512.702 810.375C503.975 814.612 503.458 814.827 499.403 823.573C498.207 822.071 496.478 817.234 494.883 814.554C492.678 813.393 488.798 811.91 486.359 810.906C489.189 809.077 492.559 807.333 495.549 805.702C496.906 802.691 498.081 800.209 499.627 797.294Z"/><path fill="white" d="M534.721 270.377C538.126 269.923 541.247 272.333 541.67 275.742C542.093 279.15 539.655 282.25 536.243 282.642C532.873 283.029 529.822 280.629 529.404 277.264C528.987 273.898 531.359 270.825 534.721 270.377Z"/><path fill="white" d="M169.092 543.358C169.687 543.646 175.422 550.178 176.469 551.297C173.947 553.371 171.296 556.333 169.006 558.748C167.169 556.373 163.605 553.213 161.308 551.047C164.598 548.201 166.182 546.611 169.092 543.358Z"/><path fill="white" d="M224.574 543.896C224.907 544.063 230.571 549.155 231.182 549.697L225.292 556.168L224.771 556.305C223.354 555.441 220.184 551.196 218.992 549.705C221.276 547.606 222.541 546.208 224.574 543.896Z"/></svg>